<svg xmlns="http://www.w3.org/2000/svg" width="80.569" height="78.554" viewBox="0 0 80.569 78.554"><path d="M10,10H83.855V81.84H10Z" transform="translate(-6.643 -6.643)" fill="#2e001e"/><path d="M0,0V78.554H80.569V0ZM3.357,3.357H77.212V75.2H3.357Z" fill="#ff2bc2"/><path d="M88.543,69.868a4.61,4.61,0,0,0-1.947-.336c-4.23,0-7.05,3.256-7.05,8.661,0,6.177,2.887,8.661,6.647,8.661a6.333,6.333,0,0,0,2.316-.369V69.868ZM73.5,78.462C73.5,70.64,78.54,64.53,86.8,64.53a14.884,14.884,0,0,1,1.746.067V55.869a.336.336,0,0,1,.336-.336h5.4c.269,0,.336.1.336.269V86.485a23.911,23.911,0,0,0,.168,3.29c0,.235,0,.269-.2.369a20,20,0,0,1-8.594,1.947C78.707,92.092,73.5,87.593,73.5,78.462ZM62.057,73.024l9.4,18.229c.168.269.067.537-.2.537H65.414a.659.659,0,0,1-.7-.436q-3.223-6.647-6.58-13.8h-.067c-2.014,4.5-4.23,9.4-6.378,13.831a.645.645,0,0,1-.6.369H45.506c-.336,0-.369-.269-.2-.47l9.2-17.692L45.607,56a.3.3,0,0,1,.235-.5h5.774c.336,0,.5.067.6.369,2.115,4.465,4.263,8.863,6.278,13.361h.067c1.947-4.431,4.1-8.9,6.143-13.294.168-.269.269-.436.6-.436h5.4c.269,0,.369.2.2.5l-8.863,17.02Z" transform="translate(-30.03 -36.868)" fill="#ff2bc2"/></svg>