<svg xmlns="http://www.w3.org/2000/svg" xmlns:xlink="http://www.w3.org/1999/xlink" width="80.569" height="78.555" viewBox="0 0 80.569 78.555"><defs><radialGradient id="a" cx="44.75" cy="113.038" r="57.703" gradientTransform="translate(0.544 -2.471) scale(0.973 0.942)" gradientUnits="userSpaceOnUse"><stop offset="0" stop-color="#34364e" stop-opacity="0.98"/><stop offset="1" stop-color="#0c0824"/></radialGradient></defs><g transform="translate(0 -130.746)"><path d="M24.8,155.549H98.658V227.39H24.8Z" transform="translate(-21.446 -21.446)" fill="url(#a)"/><path d="M3.357,134.1H77.212v71.841H3.357ZM0,209.3H80.569V130.746H0Zm54.317-46.327c-2.652,0-3.558,1.343-3.558,2.451,0,1.209.6,2.048,4.163,3.894,5.271,2.551,6.916,5,6.916,8.594,0,5.371-4.1,8.258-9.635,8.258a14.605,14.605,0,0,1-6.882-1.443c-.235-.1-.269-.269-.269-.537v-4.935c0-.336.168-.437.4-.269a12.46,12.46,0,0,0,6.748,1.981c2.652,0,3.76-1.108,3.76-2.619,0-1.208-.772-2.283-4.163-4.028-4.767-2.283-6.748-4.6-6.748-8.46,0-4.331,3.391-7.923,9.265-7.923a15.436,15.436,0,0,1,6.009.94.743.743,0,0,1,.336.671v4.6c0,.269-.168.436-.5.336a11.34,11.34,0,0,0-5.841-1.51Zm-28.871,3.995c.772.067,1.376.067,2.719.067,3.928,0,7.621-1.376,7.621-6.714,0-4.263-2.652-6.412-7.117-6.412-1.343,0-2.619.067-3.223.1Zm-5.975-17.826c0-.235.47-.4.738-.4,2.149-.1,5.338-.168,8.661-.168,9.3,0,12.924,5.1,12.924,11.615,0,8.527-6.177,12.186-13.764,12.186-1.276,0-1.712-.067-2.619-.067V185.2c0,.269-.1.4-.4.4H19.874c-.269,0-.4-.1-.4-.4V149.142Z" fill="#31c5f0"/></g></svg>